<svg width="24" height="18" viewBox="0 0 24 18" fill="none" xmlns="http://www.w3.org/2000/svg">
<path d="M23.375 8.92893C23.375 8.87307 23.375 8.8096 23.3725 8.73596C23.3699 8.5303 23.3648 8.29924 23.3598 8.05295C23.3395 7.34456 23.3039 6.6387 23.248 5.97346C23.1719 5.05686 23.0602 4.2926 22.9078 3.71877C22.747 3.11994 22.4319 2.57378 21.9939 2.1349C21.5559 1.69602 21.0104 1.37978 20.4119 1.2178C19.6934 1.02483 18.2867 0.905493 16.3062 0.83186C15.3643 0.796313 14.3562 0.773462 13.3482 0.760766C12.9953 0.755688 12.6678 0.753149 12.3732 0.75061H11.6268C11.3322 0.753149 11.0047 0.755688 10.6518 0.760766C9.64375 0.773462 8.63574 0.796313 7.69375 0.83186C5.71328 0.908032 4.3041 1.02737 3.58809 1.2178C2.98938 1.37938 2.44365 1.69549 2.0056 2.13443C1.56755 2.57337 1.25255 3.11974 1.09219 3.71877C0.937305 4.2926 0.828125 5.05686 0.751953 5.97346C0.696094 6.6387 0.660547 7.34456 0.640234 8.05295C0.632617 8.29924 0.630078 8.5303 0.627539 8.73596C0.627539 8.8096 0.625 8.87307 0.625 8.92893V9.07112C0.625 9.12698 0.625 9.19046 0.627539 9.26409C0.630078 9.46975 0.635156 9.70081 0.640234 9.94709C0.660547 10.6555 0.696094 11.3614 0.751953 12.0266C0.828125 12.9432 0.939844 13.7074 1.09219 14.2813C1.41719 15.4975 2.37187 16.4573 3.58809 16.7823C4.3041 16.9752 5.71328 17.0946 7.69375 17.1682C8.63574 17.2037 9.64375 17.2266 10.6518 17.2393C11.0047 17.2444 11.3322 17.2469 11.6268 17.2494H12.3732C12.6678 17.2469 12.9953 17.2444 13.3482 17.2393C14.3562 17.2266 15.3643 17.2037 16.3062 17.1682C18.2867 17.092 19.6959 16.9727 20.4119 16.7823C21.6281 16.4573 22.5828 15.5 22.9078 14.2813C23.0627 13.7074 23.1719 12.9432 23.248 12.0266C23.3039 11.3614 23.3395 10.6555 23.3598 9.94709C23.3674 9.70081 23.3699 9.46975 23.3725 9.26409C23.3725 9.19046 23.375 9.12698 23.375 9.07112V8.92893ZM21.5469 9.06096C21.5469 9.11428 21.5469 9.17268 21.5443 9.24124C21.5418 9.43928 21.5367 9.65764 21.5316 9.89377C21.5139 10.5692 21.4783 11.2446 21.425 11.8717C21.3564 12.6893 21.26 13.3596 21.1406 13.809C20.9832 14.3955 20.5211 14.8602 19.9371 15.0151C19.4039 15.1573 18.0607 15.2715 16.2352 15.3401C15.3109 15.3756 14.3156 15.3985 13.3229 15.4112C12.975 15.4162 12.6525 15.4188 12.3631 15.4188H11.6369L10.6771 15.4112C9.68437 15.3985 8.6916 15.3756 7.76484 15.3401C5.93926 15.269 4.59355 15.1573 4.06289 15.0151C3.47891 14.8576 3.0168 14.3955 2.85938 13.809C2.74004 13.3596 2.64355 12.6893 2.575 11.8717C2.52168 11.2446 2.48867 10.5692 2.46836 9.89377C2.46074 9.65764 2.4582 9.43674 2.45566 9.24124C2.45566 9.17268 2.45312 9.11174 2.45312 9.06096V8.93909C2.45312 8.88577 2.45313 8.82737 2.45566 8.75881C2.4582 8.56077 2.46328 8.34241 2.46836 8.10627C2.48613 7.43088 2.52168 6.75549 2.575 6.12835C2.64355 5.31077 2.74004 4.64045 2.85938 4.19104C3.0168 3.60452 3.47891 3.13987 4.06289 2.98499C4.59609 2.8428 5.93926 2.72854 7.76484 2.65999C8.68906 2.62444 9.68437 2.60159 10.6771 2.58889C11.025 2.58381 11.3475 2.58127 11.6369 2.58127H12.3631L13.3229 2.58889C14.3156 2.60159 15.3084 2.62444 16.2352 2.65999C18.0607 2.73108 19.4064 2.8428 19.9371 2.98499C20.5211 3.14241 20.9832 3.60452 21.1406 4.19104C21.26 4.64045 21.3564 5.31077 21.425 6.12835C21.4783 6.75549 21.5113 7.43088 21.5316 8.10627C21.5393 8.34241 21.5418 8.56331 21.5443 8.75881C21.5443 8.82737 21.5469 8.88831 21.5469 8.93909V9.06096ZM9.74023 12.4024L15.6309 8.97463L9.74023 5.59768V12.4024Z" fill="black"/>
</svg>
