<svg width="22" height="21" viewBox="0 0 22 21" fill="none" xmlns="http://www.w3.org/2000/svg">
<path fill-rule="evenodd" clip-rule="evenodd" d="M6.84275 0.226516C7.918 0.177016 8.26084 0.166016 10.9998 0.166016C13.7388 0.166016 14.0817 0.177932 15.156 0.226516C16.2303 0.275099 16.9637 0.446516 17.6053 0.694932C18.2773 0.948849 18.8868 1.34577 19.391 1.8591C19.9043 2.36235 20.3003 2.97102 20.5533 3.64385C20.8027 4.28552 20.9732 5.01885 21.0227 6.09135C21.0722 7.16843 21.0832 7.51127 21.0832 10.2493C21.0832 12.9883 21.0713 13.3312 21.0227 14.4064C20.9741 15.4789 20.8027 16.2123 20.5533 16.8539C20.3003 17.5269 19.9037 18.1365 19.391 18.6405C18.8868 19.1538 18.2773 19.5498 17.6053 19.8028C16.9637 20.0522 16.2303 20.2227 15.1578 20.2722C14.0817 20.3217 13.7388 20.3327 10.9998 20.3327C8.26084 20.3327 7.918 20.3208 6.84275 20.2722C5.77025 20.2236 5.03692 20.0522 4.39525 19.8028C3.72235 19.5498 3.11267 19.1532 2.60867 18.6405C2.09569 18.137 1.69871 17.5276 1.44542 16.8548C1.197 16.2132 1.0265 15.4798 0.977004 14.4073C0.927504 13.3303 0.916504 12.9874 0.916504 10.2493C0.916504 7.51035 0.928421 7.16752 0.977004 6.09318C1.02559 5.01885 1.197 4.28552 1.44542 3.64385C1.69908 2.97109 2.09636 2.36172 2.60959 1.85818C3.11287 1.34531 3.72194 0.948339 4.39434 0.694932C5.036 0.446516 5.76934 0.276016 6.84184 0.226516H6.84275ZM15.0744 2.04152C14.0111 1.99293 13.6921 1.98285 10.9998 1.98285C8.30759 1.98285 7.98859 1.99293 6.92525 2.04152C5.94167 2.08643 5.40817 2.25052 5.0525 2.38893C4.58225 2.57227 4.24584 2.78952 3.89292 3.14243C3.55838 3.4679 3.30092 3.86411 3.13942 4.30202C3.001 4.65768 2.83692 5.19118 2.792 6.17477C2.74342 7.2381 2.73334 7.5571 2.73334 10.2493C2.73334 12.9416 2.74342 13.2606 2.792 14.3239C2.83692 15.3075 3.001 15.841 3.13942 16.1967C3.30075 16.6339 3.55834 17.0308 3.89292 17.3563C4.21834 17.6908 4.61525 17.9484 5.0525 18.1098C5.40817 18.2482 5.94167 18.4123 6.92525 18.4572C7.98859 18.5058 8.30667 18.5158 10.9998 18.5158C13.693 18.5158 14.0111 18.5058 15.0744 18.4572C16.058 18.4123 16.5915 18.2482 16.9472 18.1098C17.4174 17.9264 17.7538 17.7092 18.1068 17.3563C18.4413 17.0308 18.6989 16.6339 18.8603 16.1967C18.9987 15.841 19.1628 15.3075 19.2077 14.3239C19.2563 13.2606 19.2663 12.9416 19.2663 10.2493C19.2663 7.5571 19.2563 7.2381 19.2077 6.17477C19.1628 5.19118 18.9987 4.65768 18.8603 4.30202C18.6769 3.83177 18.4597 3.49535 18.1068 3.14243C17.7813 2.80791 17.3851 2.55046 16.9472 2.38893C16.5915 2.25052 16.058 2.08643 15.0744 2.04152V2.04152ZM9.71192 13.3578C10.4312 13.6572 11.2321 13.6976 11.9779 13.4721C12.7236 13.2466 13.3679 12.7692 13.8008 12.1214C14.2337 11.4736 14.4282 10.6956 14.3512 9.92036C14.2742 9.14508 13.9304 8.42057 13.3786 7.8706C13.0268 7.51904 12.6014 7.24984 12.1331 7.0824C11.6648 6.91496 11.1652 6.85343 10.6703 6.90225C10.1754 6.95106 9.69739 7.10901 9.27082 7.36472C8.84425 7.62043 8.47969 7.96753 8.20336 8.38105C7.92704 8.79456 7.74584 9.2642 7.67281 9.75615C7.59978 10.2481 7.63673 10.7501 7.781 11.2261C7.92527 11.702 8.17328 12.1401 8.50716 12.5087C8.84105 12.8773 9.25251 13.1673 9.71192 13.3578ZM7.335 6.58452C7.81628 6.10324 8.38763 5.72148 9.01644 5.46101C9.64526 5.20055 10.3192 5.06649 10.9998 5.06649C11.6805 5.06649 12.3544 5.20055 12.9832 5.46101C13.612 5.72148 14.1834 6.10324 14.6647 6.58452C15.1459 7.06579 15.5277 7.63714 15.7882 8.26596C16.0486 8.89477 16.1827 9.56873 16.1827 10.2493C16.1827 10.93 16.0486 11.6039 15.7882 12.2327C15.5277 12.8616 15.1459 13.4329 14.6647 13.9142C13.6927 14.8862 12.3744 15.4322 10.9998 15.4322C9.62526 15.4322 8.30698 14.8862 7.335 13.9142C6.36303 12.9422 5.81698 11.6239 5.81698 10.2493C5.81698 8.87477 6.36303 7.55649 7.335 6.58452V6.58452ZM17.3322 5.83835C17.4514 5.72585 17.5469 5.59056 17.6129 5.44049C17.679 5.29043 17.7142 5.12864 17.7166 4.9647C17.719 4.80077 17.6885 4.63802 17.6269 4.48609C17.5652 4.33417 17.4737 4.19615 17.3578 4.08022C17.2419 3.96429 17.1039 3.87279 16.9519 3.81116C16.8 3.74952 16.6373 3.71899 16.4733 3.72138C16.3094 3.72377 16.1476 3.75903 15.9975 3.82507C15.8475 3.89111 15.7122 3.98659 15.5997 4.10585C15.3809 4.33779 15.2611 4.64588 15.2657 4.9647C15.2704 5.28353 15.3991 5.58799 15.6246 5.81345C15.85 6.03892 16.1545 6.16764 16.4733 6.17229C16.7921 6.17694 17.1002 6.05715 17.3322 5.83835V5.83835Z" fill="black"/>
</svg>
