<svg width="24" height="17" viewBox="0 0 24 17" fill="none" xmlns="http://www.w3.org/2000/svg">
<path d="M23.375 8.17832C23.375 8.12246 23.375 8.05898 23.3725 7.98535C23.3699 7.77969 23.3648 7.54863 23.3598 7.30234C23.3395 6.59395 23.3039 5.88809 23.248 5.22285C23.1719 4.30625 23.0602 3.54199 22.9078 2.96816C22.747 2.36933 22.4319 1.82317 21.9939 1.38429C21.5559 0.945406 21.0104 0.62917 20.4119 0.467187C19.6934 0.274219 18.2867 0.154883 16.3062 0.0812499C15.3643 0.0457031 14.3562 0.0228514 13.3482 0.0101561C12.9953 0.00507797 12.6678 0.00253906 12.3732 0H11.6268C11.3322 0.00253906 11.0047 0.00507797 10.6518 0.0101561C9.64375 0.0228514 8.63574 0.0457031 7.69375 0.0812499C5.71328 0.157422 4.3041 0.276758 3.58809 0.467187C2.98938 0.628772 2.44365 0.944875 2.0056 1.38382C1.56755 1.82276 1.25255 2.36913 1.09219 2.96816C0.937305 3.54199 0.828125 4.30625 0.751953 5.22285C0.696094 5.88809 0.660547 6.59395 0.640234 7.30234C0.632617 7.54863 0.630078 7.77969 0.627539 7.98535C0.627539 8.05898 0.625 8.12246 0.625 8.17832V8.32051C0.625 8.37637 0.625 8.43984 0.627539 8.51348C0.630078 8.71914 0.635156 8.9502 0.640234 9.19648C0.660547 9.90488 0.696094 10.6107 0.751953 11.276C0.828125 12.1926 0.939844 12.9568 1.09219 13.5307C1.41719 14.7469 2.37187 15.7066 3.58809 16.0316C4.3041 16.2246 5.71328 16.3439 7.69375 16.4176C8.63574 16.4531 9.64375 16.476 10.6518 16.4887C11.0047 16.4938 11.3322 16.4963 11.6268 16.4988H12.3732C12.6678 16.4963 12.9953 16.4938 13.3482 16.4887C14.3562 16.476 15.3643 16.4531 16.3062 16.4176C18.2867 16.3414 19.6959 16.2221 20.4119 16.0316C21.6281 15.7066 22.5828 14.7494 22.9078 13.5307C23.0627 12.9568 23.1719 12.1926 23.248 11.276C23.3039 10.6107 23.3395 9.90488 23.3598 9.19648C23.3674 8.9502 23.3699 8.71914 23.3725 8.51348C23.3725 8.43984 23.375 8.37637 23.375 8.32051V8.17832V8.17832ZM21.5469 8.31035C21.5469 8.36367 21.5469 8.42207 21.5443 8.49063C21.5418 8.68867 21.5367 8.90703 21.5316 9.14316C21.5139 9.81856 21.4783 10.4939 21.425 11.1211C21.3564 11.9387 21.26 12.609 21.1406 13.0584C20.9832 13.6449 20.5211 14.1096 19.9371 14.2645C19.4039 14.4066 18.0607 14.5209 16.2352 14.5895C15.3109 14.625 14.3156 14.6479 13.3229 14.6605C12.975 14.6656 12.6525 14.6682 12.3631 14.6682H11.6369L10.6771 14.6605C9.68437 14.6479 8.6916 14.625 7.76484 14.5895C5.93926 14.5184 4.59355 14.4066 4.06289 14.2645C3.47891 14.107 3.0168 13.6449 2.85938 13.0584C2.74004 12.609 2.64355 11.9387 2.575 11.1211C2.52168 10.4939 2.48867 9.81856 2.46836 9.14316C2.46074 8.90703 2.4582 8.68613 2.45566 8.49063C2.45566 8.42207 2.45312 8.36113 2.45312 8.31035V8.18848C2.45312 8.13516 2.45313 8.07676 2.45566 8.0082C2.4582 7.81016 2.46328 7.5918 2.46836 7.35566C2.48613 6.68027 2.52168 6.00488 2.575 5.37773C2.64355 4.56016 2.74004 3.88984 2.85938 3.44043C3.0168 2.85391 3.47891 2.38926 4.06289 2.23438C4.59609 2.09219 5.93926 1.97793 7.76484 1.90937C8.68906 1.87383 9.68437 1.85098 10.6771 1.83828C11.025 1.8332 11.3475 1.83066 11.6369 1.83066H12.3631L13.3229 1.83828C14.3156 1.85098 15.3084 1.87383 16.2352 1.90937C18.0607 1.98047 19.4064 2.09219 19.9371 2.23438C20.5211 2.3918 20.9832 2.85391 21.1406 3.44043C21.26 3.88984 21.3564 4.56016 21.425 5.37773C21.4783 6.00488 21.5113 6.68027 21.5316 7.35566C21.5393 7.5918 21.5418 7.8127 21.5443 8.0082C21.5443 8.07676 21.5469 8.1377 21.5469 8.18848V8.31035ZM9.74023 11.6518L15.6309 8.22402L9.74023 4.84707V11.6518Z" fill="black"/>
</svg>
