<svg width="64" height="71" viewBox="0 0 64 71" fill="none" xmlns="http://www.w3.org/2000/svg">
<path d="M1.5 68V69.5H3H14.9565H16.4565V68V50.5571H29.4883C30.0807 50.5571 30.6654 50.5477 31.2422 50.5288L43.8893 68.8521L44.3365 69.5H45.1237H58H60.8671L59.2322 67.1447L45.5043 47.3671C49.4753 45.4274 52.6066 42.7384 54.8439 39.2874L54.844 39.2874L54.8506 39.2771C57.2344 35.5332 58.3963 31.1269 58.3963 26.1214C58.3963 21.1159 57.2344 16.7097 54.8506 12.9658L53.5853 13.7714L54.8506 12.9658C52.4722 9.23056 49.0791 6.38583 44.734 4.42073C40.4447 2.45312 35.3465 1.5 29.4883 1.5H3H1.5V3V68ZM28.9365 37.6214H16.4565V14.7143H28.9365C34.0342 14.7143 37.5778 15.7968 39.8327 17.7027L39.8392 17.7082L39.8457 17.7136C42.1335 19.6034 43.3478 22.3293 43.3478 26.1214C43.3478 29.8425 42.1387 32.5824 39.8302 34.5422L39.8237 34.5478L39.8173 34.5533C37.5632 36.5115 34.0261 37.6214 28.9365 37.6214Z" fill="black" stroke="white" stroke-width="3" stroke-miterlimit="2.3662"/>
<path d="M3 68V3H29.4883C35.1906 3 40.0652 3.92857 44.112 5.78572C48.2202 7.64286 51.3779 10.3048 53.5853 13.7714C55.7926 17.2381 56.8963 21.3548 56.8963 26.1214C56.8963 30.8881 55.7926 35.0048 53.5853 38.4714C51.3779 41.8762 48.2202 44.5071 44.112 46.3643C40.0652 48.1595 35.1906 49.0571 29.4883 49.0571H9.62207L14.9565 43.5786V68H3ZM45.1237 68L28.8445 44.4143H41.6288L58 68H45.1237ZM14.9565 44.8786L9.62207 39.1214H28.9365C34.2096 39.1214 38.1644 37.9762 40.801 35.6857C43.4989 33.3952 44.8478 30.2071 44.8478 26.1214C44.8478 21.9738 43.4989 18.7857 40.801 16.5571C38.1644 14.3286 34.2096 13.2143 28.9365 13.2143H9.62207L14.9565 7.27143V44.8786Z" fill="black"/>
</svg>
