<svg width="22" height="22" viewBox="0 0 22 22" fill="none" xmlns="http://www.w3.org/2000/svg">
<path fill-rule="evenodd" clip-rule="evenodd" d="M6.84275 0.977126C7.918 0.927626 8.26084 0.916626 10.9998 0.916626C13.7388 0.916626 14.0817 0.928543 15.156 0.977126C16.2303 1.02571 16.9637 1.19713 17.6053 1.44554C18.2773 1.69946 18.8868 2.09638 19.391 2.60971C19.9043 3.11296 20.3003 3.72163 20.5533 4.39446C20.8027 5.03613 20.9732 5.76946 21.0227 6.84196C21.0722 7.91904 21.0832 8.26188 21.0832 11C21.0832 13.739 21.0713 14.0818 21.0227 15.157C20.9741 16.2295 20.8027 16.9629 20.5533 17.6045C20.3003 18.2775 19.9037 18.8871 19.391 19.3911C18.8868 19.9045 18.2773 20.3005 17.6053 20.5535C16.9637 20.8028 16.2303 20.9733 15.1578 21.0228C14.0817 21.0723 13.7388 21.0833 10.9998 21.0833C8.26084 21.0833 7.918 21.0714 6.84275 21.0228C5.77025 20.9742 5.03692 20.8028 4.39525 20.5535C3.72235 20.3004 3.11267 19.9038 2.60867 19.3911C2.09569 18.8876 1.69871 18.2782 1.44542 17.6055C1.197 16.9638 1.0265 16.2305 0.977004 15.158C0.927504 14.0809 0.916504 13.738 0.916504 11C0.916504 8.26096 0.928421 7.91813 0.977004 6.84379C1.02559 5.76946 1.197 5.03613 1.44542 4.39446C1.69908 3.7217 2.09636 3.11233 2.60959 2.60879C3.11287 2.09592 3.72194 1.69895 4.39434 1.44554C5.036 1.19713 5.76934 1.02663 6.84184 0.977126H6.84275ZM15.0744 2.79213C14.0111 2.74354 13.6921 2.73346 10.9998 2.73346C8.30759 2.73346 7.98859 2.74354 6.92525 2.79213C5.94167 2.83704 5.40817 3.00113 5.0525 3.13954C4.58225 3.32288 4.24584 3.54013 3.89292 3.89304C3.55838 4.21851 3.30092 4.61472 3.13942 5.05263C3.001 5.40829 2.83692 5.94179 2.792 6.92538C2.74342 7.98871 2.73334 8.30771 2.73334 11C2.73334 13.6922 2.74342 14.0112 2.792 15.0745C2.83692 16.0581 3.001 16.5916 3.13942 16.9473C3.30075 17.3845 3.55834 17.7815 3.89292 18.1069C4.21834 18.4415 4.61525 18.699 5.0525 18.8604C5.40817 18.9988 5.94167 19.1629 6.92525 19.2078C7.98859 19.2564 8.30667 19.2665 10.9998 19.2665C13.693 19.2665 14.0111 19.2564 15.0744 19.2078C16.058 19.1629 16.5915 18.9988 16.9472 18.8604C17.4174 18.677 17.7538 18.4598 18.1068 18.1069C18.4413 17.7815 18.6989 17.3845 18.8603 16.9473C18.9987 16.5916 19.1628 16.0581 19.2077 15.0745C19.2563 14.0112 19.2663 13.6922 19.2663 11C19.2663 8.30771 19.2563 7.98871 19.2077 6.92538C19.1628 5.94179 18.9987 5.40829 18.8603 5.05263C18.6769 4.58238 18.4597 4.24596 18.1068 3.89304C17.7813 3.55852 17.3851 3.30107 16.9472 3.13954C16.5915 3.00113 16.058 2.83704 15.0744 2.79213ZM9.71192 14.1084C10.4312 14.4078 11.2321 14.4482 11.9779 14.2227C12.7236 13.9972 13.3679 13.5198 13.8008 12.872C14.2337 12.2242 14.4282 11.4463 14.3512 10.671C14.2742 9.89569 13.9304 9.17118 13.3786 8.62121C13.0268 8.26965 12.6014 8.00045 12.1331 7.83301C11.6648 7.66557 11.1652 7.60404 10.6703 7.65286C10.1754 7.70167 9.69739 7.85962 9.27082 8.11533C8.84425 8.37104 8.47969 8.71814 8.20336 9.13166C7.92704 9.54517 7.74584 10.0148 7.67281 10.5068C7.59978 10.9987 7.63673 11.5007 7.781 11.9767C7.92527 12.4526 8.17328 12.8907 8.50716 13.2593C8.84105 13.6279 9.25251 13.9179 9.71192 14.1084ZM7.335 7.33513C7.81628 6.85385 8.38763 6.47209 9.01644 6.21162C9.64526 5.95116 10.3192 5.8171 10.9998 5.8171C11.6805 5.8171 12.3544 5.95116 12.9832 6.21162C13.612 6.47209 14.1834 6.85385 14.6647 7.33513C15.1459 7.8164 15.5277 8.38775 15.7882 9.01657C16.0486 9.64538 16.1827 10.3193 16.1827 11C16.1827 11.6806 16.0486 12.3545 15.7882 12.9834C15.5277 13.6122 15.1459 14.1835 14.6647 14.6648C13.6927 15.6368 12.3744 16.1828 10.9998 16.1828C9.62526 16.1828 8.30698 15.6368 7.335 14.6648C6.36303 13.6928 5.81698 12.3745 5.81698 11C5.81698 9.62538 6.36303 8.3071 7.335 7.33513ZM17.3322 6.58896C17.4514 6.47646 17.5469 6.34117 17.6129 6.1911C17.679 6.04104 17.7142 5.87925 17.7166 5.71531C17.719 5.55138 17.6885 5.38863 17.6269 5.2367C17.5652 5.08478 17.4737 4.94676 17.3578 4.83083C17.2419 4.7149 17.1039 4.6234 16.9519 4.56177C16.8 4.50013 16.6373 4.4696 16.4733 4.47199C16.3094 4.47438 16.1476 4.50964 15.9975 4.57568C15.8475 4.64172 15.7122 4.7372 15.5997 4.85646C15.3809 5.0884 15.2611 5.39649 15.2657 5.71531C15.2704 6.03414 15.3991 6.3386 15.6246 6.56406C15.85 6.78953 16.1545 6.91825 16.4733 6.9229C16.7921 6.92755 17.1002 6.80776 17.3322 6.58896Z" fill="black"/>
</svg>
