<svg width="18" height="18" viewBox="0 0 18 18" fill="none" xmlns="http://www.w3.org/2000/svg">
<path d="M9.95 17.9V16.9C10.7013 16.7867 11.4063 16.595 12.065 16.325C12.7237 16.055 13.3187 15.7093 13.85 15.288L14.55 16.008C13.882 16.5347 13.1687 16.9503 12.41 17.255C11.6507 17.5597 10.8307 17.7747 9.95 17.9ZM16.008 14.558L15.3 13.85C15.7333 13.3 16.0833 12.696 16.35 12.038C16.6167 11.38 16.8 10.684 16.9 9.95H17.912C17.8167 10.7913 17.6073 11.6 17.284 12.376C16.9607 13.152 16.5353 13.8793 16.008 14.558ZM16.9 7.95C16.8 7.2 16.6167 6.49567 16.35 5.837C16.0833 5.17833 15.7333 4.58267 15.3 4.05L16.027 3.362C16.5963 4.12067 17.0223 4.83467 17.305 5.504C17.5877 6.17333 17.79 6.98867 17.912 7.95H16.9ZM7.95 17.9C5.682 17.6133 3.79 16.6243 2.274 14.933C0.758 13.2417 0 11.2473 0 8.95C0 6.64867 0.755 4.64933 2.265 2.952C3.775 1.25467 5.67 0.270667 7.95 0V1C5.95 1.28333 4.29167 2.175 2.975 3.675C1.65833 5.175 1 6.93333 1 8.95C1 10.9667 1.65833 12.721 2.975 14.213C4.29167 15.705 5.95 16.6007 7.95 16.9V17.9ZM13.9 2.65C13.3 2.2 12.67 1.83333 12.01 1.55C11.35 1.26667 10.6763 1.08333 9.989 1V0C10.831 0.108667 11.6283 0.318667 12.381 0.63C13.1337 0.940667 13.857 1.36133 14.551 1.892L13.9 2.65ZM8.956 12.97C8.18133 12.294 7.44933 11.579 6.76 10.825C6.07 10.0717 5.725 9.185 5.725 8.165C5.725 7.24967 6.03567 6.469 6.657 5.823C7.27833 5.17633 8.04467 4.853 8.956 4.853C9.86733 4.853 10.634 5.17633 11.256 5.823C11.876 6.46967 12.186 7.25033 12.186 8.165C12.186 9.185 11.8413 10.0717 11.152 10.825C10.4627 11.5783 9.73067 12.293 8.956 12.969V12.97ZM8.956 8.93C9.20467 8.93 9.41067 8.84867 9.574 8.686C9.73733 8.522 9.819 8.31567 9.819 8.067C9.819 7.82233 9.73733 7.61733 9.574 7.452C9.41067 7.28667 9.20467 7.204 8.956 7.204C8.70733 7.204 8.50133 7.28667 8.338 7.452C8.17467 7.61733 8.093 7.82233 8.093 8.067C8.093 8.31567 8.17467 8.522 8.338 8.686C8.50133 8.84933 8.70733 8.931 8.956 8.931V8.93Z" fill="black"/>
</svg>
