<svg width="52" height="60" viewBox="0 0 52 60" fill="none" xmlns="http://www.w3.org/2000/svg">
<path d="M0.25 15.1443L25.9808 0.288675L51.7115 15.1443V44.8557L25.9808 59.7113L0.25 44.8557L0.25 15.1443Z" fill="#F5F5F5" stroke="black" stroke-width="0.5"/>
<path d="M24.9 36.075C24.13 36.075 23.41 35.945 22.74 35.685C22.08 35.425 21.565 35.085 21.195 34.665L21.585 34.08C21.905 34.45 22.355 34.76 22.935 35.01C23.525 35.25 24.18 35.37 24.9 35.37C25.84 35.37 26.555 35.16 27.045 34.74C27.545 34.32 27.795 33.755 27.795 33.045C27.795 32.345 27.545 31.785 27.045 31.365C26.555 30.935 25.785 30.72 24.735 30.72H24.075V30.165L27.42 25.89L27.525 26.19H21.585V25.5H28.17V26.04L24.84 30.315L24.51 30.075H24.84C26.09 30.075 27.025 30.35 27.645 30.9C28.265 31.45 28.575 32.165 28.575 33.045C28.575 33.625 28.435 34.145 28.155 34.605C27.885 35.065 27.475 35.425 26.925 35.685C26.385 35.945 25.71 36.075 24.9 36.075Z" fill="black"/>
</svg>
