<svg width="52" height="52" viewBox="0 0 52 52" fill="none" xmlns="http://www.w3.org/2000/svg">
<rect x="0.25" y="0.25" width="51.5" height="51.5" fill="#F5F5F5" stroke="black" stroke-width="0.5"/>
<path d="M21.615 32V31.46L26.055 27.05C26.475 26.63 26.79 26.265 27 25.955C27.21 25.635 27.35 25.34 27.42 25.07C27.5 24.8 27.54 24.535 27.54 24.275C27.54 23.615 27.315 23.095 26.865 22.715C26.415 22.325 25.755 22.13 24.885 22.13C24.225 22.13 23.645 22.23 23.145 22.43C22.655 22.63 22.23 22.935 21.87 23.345L21.33 22.865C21.73 22.405 22.235 22.05 22.845 21.8C23.465 21.55 24.165 21.425 24.945 21.425C25.635 21.425 26.23 21.54 26.73 21.77C27.24 21.99 27.63 22.31 27.9 22.73C28.18 23.14 28.32 23.63 28.32 24.2C28.32 24.54 28.27 24.875 28.17 25.205C28.08 25.525 27.91 25.865 27.66 26.225C27.42 26.585 27.07 26.995 26.61 27.455L22.44 31.61L22.185 31.31H28.83V32H21.615Z" fill="black"/>
</svg>
